<?xml version="1.0" encoding="iso-8859-1"?>
<!-- Uploaded to: SVG Repo, www.svgrepo.com, Generator: SVG Repo Mixer Tools -->
<!DOCTYPE svg PUBLIC "-//W3C//DTD SVG 1.1//EN" "http://www.w3.org/Graphics/SVG/1.1/DTD/svg11.dtd">
<svg fill="#292929" height="800px" width="800px" version="1.1" id="Capa_1" xmlns="http://www.w3.org/2000/svg"
	xmlns:xlink="http://www.w3.org/1999/xlink" viewBox="0 0 464.871 464.871" xml:space="preserve">
	<g>
		<path d="M181.925,116.838c32.204,0,58.403-26.207,58.403-58.419S214.13,0,181.925,0c-32.212,0-58.419,26.207-58.419,58.419
		S149.714,116.838,181.925,116.838z" />
		<path
			d="M379.632,216.554l-38.218-37.947c-5.833-5.789-16.028-9.99-24.244-9.99h-56.574l-12.67-29.298
		c-3.671-8.496-12.026-13.986-21.285-13.986c-0.064,0-83.43,0-83.617,0c-9.259,0-17.614,5.49-21.285,13.985L77.062,242.628
		c-2.458,5.683-2.556,11.982-0.275,17.738c2.279,5.756,6.664,10.279,12.348,12.737c2.935,1.266,6.026,1.909,9.191,1.909
		c9.255,0,17.608-5.49,21.281-13.984l8.134-18.81v197.128c0,14.074,11.45,25.524,25.524,25.524c14.075,0,25.526-11.45,25.526-25.524
		V307.039h10.504v132.308c0,14.074,11.45,25.524,25.524,25.524c14.075,0,25.526-11.45,25.526-25.524v-27.865h129.296
		c11.074,0,20.084-9.009,20.084-20.082V240.796C389.726,232.551,385.479,222.355,379.632,216.554z M369.644,391.403l-154.334-0.004
		l0.006-202.705H317.17c0.338,0,0.711,0.032,1.105,0.088v36.354c0,11.074,9.009,20.084,20.082,20.084h31.291L369.644,391.403z" />
		<path d="M238.297,238.753h54.184c5.544,0,10.039-4.495,10.039-10.039c0-5.544-4.495-10.039-10.039-10.039h-54.184
		c-5.544,0-10.039,4.495-10.039,10.039C228.258,234.258,232.753,238.753,238.297,238.753z" />
		<path d="M228.258,272.593c0,5.545,4.495,10.039,10.039,10.039h108.803c5.544,0,10.039-4.494,10.039-10.039
		c0-5.544-4.495-10.039-10.039-10.039H238.297C232.753,262.554,228.258,267.049,228.258,272.593z" />
		<path d="M347.099,306.435H238.297c-5.544,0-10.039,4.496-10.039,10.039c0,5.544,4.495,10.039,10.039,10.039h108.803
		c5.544,0,10.039-4.495,10.039-10.039C357.138,310.931,352.643,306.435,347.099,306.435z" />
		<path d="M347.099,350.314H238.297c-5.544,0-10.039,4.495-10.039,10.039c0,5.544,4.495,10.039,10.039,10.039h108.803
		c5.544,0,10.039-4.495,10.039-10.039C357.138,354.809,352.643,350.314,347.099,350.314z" />
	</g>
</svg>